<svg xmlns="http://www.w3.org/2000/svg" viewBox="0 0 18.20 16.10" width="18" height="16" role="img" aria-label="Base mark"><title>Base mark</title><path fill="#111110" d="M2 9.4L16.2 9.4C16.48 9.4 16.7 9.62 16.7 9.9L16.7 9.9C16.7 10.18 16.48 10.4 16.2 10.4L2 10.4C1.72 10.4 1.5 10.18 1.5 9.9L1.5 9.9C1.5 9.62 1.72 9.4 2 9.4ZM3.1 9.9L15.1 9.9C15.1 12.5 12.41 14.6 9.1 14.6C5.79 14.6 3.1 12.5 3.1 9.9ZM4.1 10.4C4.1 12.17 6.34 13.6 9.1 13.6C11.86 13.6 14.1 12.17 14.1 10.4L4.1 10.4ZM10 7.7C10 8.2 9.6 8.6 9.1 8.6C8.6 8.6 8.2 8.2 8.2 7.7C8.2 7.2 8.6 6.8 9.1 6.8C9.6 6.8 10 7.2 10 7.7ZM10.08 5.56C10.08 5.97 9.75 6.31 9.33 6.31C8.92 6.31 8.58 5.97 8.58 5.56C8.58 5.14 8.92 4.81 9.33 4.81C9.75 4.81 10.08 5.14 10.08 5.56ZM10.41 3.64C10.41 3.97 10.14 4.24 9.81 4.24C9.47 4.24 9.21 3.97 9.21 3.64C9.21 3.31 9.47 3.04 9.81 3.04C10.14 3.04 10.41 3.31 10.41 3.64ZM10.9 1.95C10.9 2.2 10.7 2.4 10.45 2.4C10.2 2.4 10 2.2 10 1.95C10 1.7 10.2 1.5 10.45 1.5C10.7 1.5 10.9 1.7 10.9 1.95Z"/></svg>
