<svg xmlns="http://www.w3.org/2000/svg" viewBox="0 0 578.06 665.94" width="578" height="666" role="img" aria-label="Base — mise en place for everyday cooks"><title>Base — mise en place for everyday cooks</title><path fill="#FFFFFF" d="M199.61 207.1L378.45 207.1C378.45 243.79 338.41 273.53 289.03 273.53C239.64 273.53 199.61 243.79 199.61 207.1ZM259.65 281.19L318.41 281.19L318.41 288.85C318.41 290.97 316.69 292.69 314.58 292.69L263.48 292.69C261.36 292.69 259.65 290.97 259.65 288.85L259.65 281.19ZM306.27 179C306.27 190.64 296.84 200.07 285.2 200.07C273.56 200.07 264.12 190.64 264.12 179C264.12 167.35 273.56 157.92 285.2 157.92C296.84 157.92 306.27 167.35 306.27 179ZM298.69 179C298.69 171.55 292.65 165.51 285.2 165.51C277.75 165.51 271.71 171.55 271.71 179C271.71 186.45 277.75 192.48 285.2 192.48C292.65 192.48 298.69 186.45 298.69 179ZM312.29 135.29C312.29 143.91 305.31 150.89 296.69 150.89C288.08 150.89 281.1 143.91 281.1 135.29C281.1 126.68 288.08 119.7 296.69 119.7C305.31 119.7 312.29 126.68 312.29 135.29ZM306.68 135.29C306.68 129.78 302.21 125.31 296.69 125.31C291.18 125.31 286.71 129.78 286.71 135.29C286.71 140.81 291.18 145.28 296.69 145.28C302.21 145.28 306.68 140.81 306.68 135.29ZM299.29 101.13C299.29 107.5 294.13 112.67 287.75 112.67C281.38 112.67 276.21 107.5 276.21 101.13C276.21 94.75 281.38 89.59 287.75 89.59C294.13 89.59 299.29 94.75 299.29 101.13ZM295.14 101.13C295.14 97.05 291.83 93.74 287.75 93.74C283.67 93.74 280.36 97.05 280.36 101.13C280.36 105.21 283.67 108.52 287.75 108.52C291.83 108.52 295.14 105.21 295.14 101.13ZM305.24 74.02C305.24 78.74 301.41 82.56 296.69 82.56C291.98 82.56 288.15 78.74 288.15 74.02C288.15 69.3 291.98 65.48 296.69 65.48C301.41 65.48 305.24 69.3 305.24 74.02ZM302.16 74.02C302.16 71 299.71 68.55 296.69 68.55C293.67 68.55 291.23 71 291.23 74.02C291.23 77.04 293.67 79.49 296.69 79.49C299.71 79.49 302.16 77.04 302.16 74.02Z"/><path fill="#FFFFFF" d="M65.48 461.48L117.72 461.48C148.88 461.48 163.43 445.36 163.43 423.19C163.43 401.22 148.39 387.94 134.52 386.96L134.52 385.79C147.71 382.37 157.76 372.12 157.76 353.96C157.76 332.18 143.41 315.97 114.99 315.97L65.48 315.97ZM79.35 449.07L79.35 393.6L118.02 393.6C137.35 393.6 150.05 406.69 150.05 423.1C150.05 438.04 139.6 449.07 117.43 449.07ZM79.35 381.69L79.35 328.37L114.7 328.37C134.33 328.37 144.38 339.01 144.38 354.25C144.38 370.07 132.96 381.69 115.97 381.69ZM227.53 463.92C245.31 463.92 256.54 454.25 261.32 444.19L262.3 444.19L262.3 461.48L275.29 461.48L275.29 387.35C275.29 358.45 253.31 350.83 236.22 350.83C219.23 350.83 202.04 357.76 194.72 375.44L207.42 379.74C211.22 370.66 220.89 362.65 236.52 362.65C252.83 362.65 262.1 371.53 262.1 386.18L262.1 388.72C262.1 397.02 251.65 397.22 233.59 399.37C208.98 402.39 191.6 409.33 191.6 430.91C191.6 452.1 207.71 463.92 227.53 463.92ZM229.49 452.1C215.33 452.1 204.88 444.58 204.88 431.5C204.88 418.6 215.42 412.94 233.69 410.69C242.38 409.62 258.29 407.67 262.1 404.05L262.1 419.58C262.1 437.35 249.31 452.1 229.49 452.1ZM349.45 463.82C373.57 463.82 390.27 450.44 390.27 431.79C390.27 417.34 381.19 407.57 362.63 403.08L345.94 399.07C332.46 395.85 326.4 390.09 326.4 380.91C326.4 370.07 336.85 362.35 351.31 362.35C365.66 362.35 372.99 369.78 376.4 379.74L388.51 376.61C383.44 360.89 371.81 350.83 351.21 350.83C329.14 350.83 313.03 363.43 313.03 381.69C313.03 396.44 322.3 406.2 341.05 410.69L358.83 414.99C370.64 417.82 376.6 423.78 376.6 432.57C376.6 443.6 365.76 452 349.26 452C334.8 452 325.23 445.66 322.11 432.47L309.41 435.5C313.32 453.86 327.97 463.82 349.45 463.82ZM468.15 463.82C490.12 463.82 504.96 451.91 509.94 438.14L497.35 434.13C493.34 443.7 483.58 451.91 468.24 451.91C446.17 451.91 432.21 435.69 431.62 410.89L512.58 410.89L512.58 405.13C512.58 368.02 490.02 350.83 466.1 350.83C437.58 350.83 418.24 374.56 418.24 407.57C418.24 440.68 437.58 463.82 468.15 463.82ZM431.62 399.46C432.79 379.35 446.37 362.75 466.1 362.75C485.63 362.75 497.83 378.27 499.2 399.46Z"/><path fill="#FFFFFF" d="M138.57 524.69C138.57 525.36 138.49 526.16 138.35 527.09L135.82 541.28L130.88 541.28L133.28 527.83C133.4 527.02 133.46 526.43 133.46 526.09C133.46 524.48 133.01 523.26 132.13 522.42C131.24 521.57 130.01 521.15 128.44 521.15C126.54 521.15 124.95 521.73 123.65 522.88C122.36 524.03 121.54 525.68 121.19 527.83L118.78 541.28L113.85 541.28L116.25 527.83C116.37 527.02 116.43 526.43 116.43 526.09C116.43 524.48 115.98 523.26 115.09 522.42C114.21 521.57 112.98 521.15 111.4 521.15C109.51 521.15 107.92 521.73 106.62 522.88C105.33 524.03 104.51 525.68 104.16 527.83L104.16 527.7L101.75 541.28L96.78 541.28L101.01 517.22L105.99 517.22L105.51 520.02C106.47 519.03 107.63 518.25 108.98 517.68C110.33 517.11 111.74 516.83 113.2 516.83C115.12 516.83 116.77 517.24 118.15 518.05C119.53 518.87 120.5 520.04 121.06 521.59C122.02 520.13 123.34 518.97 125.03 518.12C126.72 517.26 128.45 516.83 130.23 516.83C132.76 516.83 134.78 517.51 136.3 518.88C137.81 520.25 138.57 522.18 138.57 524.69ZM146.82 511.41C146.82 510.39 147.21 509.51 147.98 508.77C148.75 508.03 149.63 507.66 150.62 507.66C151.41 507.66 152.04 507.9 152.52 508.4C153 508.89 153.24 509.52 153.24 510.28C153.24 511.3 152.86 512.18 152.1 512.92C151.35 513.66 150.47 514.03 149.48 514.03C148.7 514.03 148.06 513.79 147.56 513.29C147.07 512.8 146.82 512.17 146.82 511.41ZM151.36 517.22L147.13 541.28L142.15 541.28L146.38 517.22ZM153.59 534.86C153.59 534.63 153.62 534.31 153.68 533.9L158.52 533.9C158.41 535.01 158.74 535.93 159.53 536.65C160.31 537.38 161.42 537.75 162.85 537.75C164.24 537.75 165.39 537.5 166.3 537C167.2 536.51 167.65 535.78 167.65 534.82C167.65 534 167.28 533.35 166.54 532.85C165.79 532.36 164.61 531.81 162.98 531.19C161.44 530.58 160.18 530.02 159.22 529.49C158.26 528.97 157.43 528.25 156.73 527.33C156.03 526.41 155.69 525.27 155.69 523.9C155.69 522.5 156.09 521.27 156.89 520.21C157.69 519.15 158.81 518.32 160.25 517.72C161.69 517.13 163.34 516.83 165.21 516.83C166.89 516.83 168.4 517.11 169.73 517.68C171.05 518.25 172.08 519.05 172.83 520.08C173.57 521.11 173.94 522.3 173.94 523.64C173.94 524.05 173.92 524.35 173.9 524.56L169.18 524.56C169.3 523.42 168.97 522.5 168.2 521.81C167.43 521.11 166.33 520.76 164.9 520.76C163.65 520.76 162.64 521.02 161.86 521.54C161.09 522.07 160.71 522.78 160.71 523.68C160.71 524.59 161.1 525.31 161.89 525.85C162.67 526.38 163.88 526.97 165.51 527.61C167 528.2 168.2 528.75 169.14 529.27C170.07 529.8 170.87 530.5 171.54 531.37C172.21 532.24 172.54 533.33 172.54 534.64C172.54 536.07 172.11 537.32 171.25 538.38C170.39 539.44 169.21 540.26 167.69 540.82C166.18 541.39 164.46 541.68 162.54 541.68C160.88 541.68 159.37 541.39 158 540.82C156.63 540.26 155.55 539.46 154.77 538.42C153.98 537.39 153.59 536.2 153.59 534.86ZM201.54 526.17C201.54 526.84 201.47 527.64 201.32 528.57C201.2 529.22 201 530 200.71 530.93L182.32 530.93C182.29 531.14 182.28 531.44 182.28 531.85C182.28 533.57 182.81 534.94 183.87 535.95C184.94 536.97 186.33 537.48 188.04 537.48C190.75 537.48 192.83 536.36 194.29 534.12L199.66 534.12C198.55 536.33 196.92 538.15 194.77 539.56C192.61 540.97 190.13 541.68 187.3 541.68C185.29 541.68 183.53 541.28 182.02 540.5C180.5 539.71 179.32 538.58 178.48 537.11C177.64 535.64 177.21 533.92 177.21 531.94C177.21 531.09 177.3 530.19 177.48 529.23C177.91 526.75 178.8 524.58 180.14 522.7C181.48 520.82 183.15 519.37 185.14 518.36C187.13 517.34 189.31 516.83 191.67 516.83C194.67 516.83 197.06 517.67 198.85 519.36C200.64 521.05 201.54 523.32 201.54 526.17ZM196.43 526.22C196.43 524.62 195.9 523.35 194.83 522.42C193.77 521.49 192.4 521.02 190.71 521.02C188.93 521.02 187.33 521.59 185.9 522.72C184.48 523.86 183.5 525.4 182.98 527.35L196.34 527.35C196.4 526.83 196.43 526.45 196.43 526.22ZM241.58 526.17C241.58 526.84 241.51 527.64 241.36 528.57C241.25 529.22 241.04 530 240.75 530.93L222.37 530.93C222.34 531.14 222.32 531.44 222.32 531.85C222.32 533.57 222.86 534.94 223.92 535.95C224.98 536.97 226.37 537.48 228.09 537.48C230.8 537.48 232.88 536.36 234.33 534.12L239.7 534.12C238.6 536.33 236.97 538.15 234.81 539.56C232.66 540.97 230.17 541.68 227.35 541.68C225.34 541.68 223.58 541.28 222.06 540.5C220.55 539.71 219.37 538.58 218.53 537.11C217.68 535.64 217.26 533.92 217.26 531.94C217.26 531.09 217.35 530.19 217.52 529.23C217.96 526.75 218.85 524.58 220.18 522.7C221.52 520.82 223.19 519.37 225.18 518.36C227.18 517.34 229.36 516.83 231.71 516.83C234.71 516.83 237.11 517.67 238.9 519.36C240.69 521.05 241.58 523.32 241.58 526.17ZM236.47 526.22C236.47 524.62 235.94 523.35 234.88 522.42C233.82 521.49 232.44 521.02 230.75 521.02C228.98 521.02 227.38 521.59 225.95 522.72C224.52 523.86 223.55 525.4 223.02 527.35L236.39 527.35C236.44 526.83 236.47 526.45 236.47 526.22ZM268.74 524.69C268.74 525.33 268.67 526.13 268.53 527.09L265.99 541.28L261.06 541.28L263.46 527.83C263.58 527.02 263.64 526.43 263.64 526.09C263.64 524.48 263.19 523.26 262.3 522.42C261.42 521.57 260.19 521.15 258.61 521.15C256.72 521.15 255.13 521.73 253.83 522.88C252.54 524.03 251.71 525.68 251.36 527.83L251.36 527.7L248.96 541.28L243.98 541.28L248.22 517.22L253.2 517.22L252.72 520.02C253.71 519.03 254.88 518.25 256.23 517.68C257.59 517.11 258.99 516.83 260.45 516.83C262.98 516.83 265 517.5 266.5 518.86C268 520.21 268.74 522.16 268.74 524.69ZM303.11 516.83C304.95 516.83 306.58 517.22 308 518.01C309.43 518.79 310.54 519.91 311.32 521.37C312.11 522.82 312.5 524.53 312.5 526.48C312.5 527.32 312.41 528.21 312.24 529.14C311.8 531.56 310.92 533.72 309.6 535.63C308.27 537.53 306.66 539.02 304.75 540.08C302.84 541.14 300.84 541.68 298.75 541.68C296.91 541.68 295.35 541.3 294.05 540.56C292.76 539.82 291.74 538.9 291.02 537.79L288.4 552.72L283.42 552.72L289.66 517.22L294.64 517.22L294.03 520.76C295.08 519.65 296.39 518.72 297.98 517.96C299.57 517.21 301.28 516.83 303.11 516.83ZM307.35 527.35C307.35 525.4 306.77 523.88 305.62 522.79C304.47 521.7 303.03 521.15 301.28 521.15C300.03 521.15 298.78 521.47 297.54 522.11C296.31 522.75 295.24 523.68 294.34 524.91C293.43 526.13 292.84 527.57 292.54 529.23C292.43 529.78 292.37 530.38 292.37 531.02C292.37 532.97 292.94 534.51 294.09 535.65C295.24 536.78 296.68 537.35 298.4 537.35C299.68 537.35 300.94 537.02 302.17 536.37C303.41 535.71 304.48 534.76 305.38 533.51C306.29 532.26 306.88 530.8 307.17 529.14C307.29 528.59 307.35 527.99 307.35 527.35ZM325.73 508.97L320.01 541.28L315.03 541.28L320.75 508.97ZM340.58 516.83C342.47 516.83 344.06 517.2 345.34 517.94C346.62 518.68 347.58 519.61 348.22 520.71L348.83 517.22L353.86 517.22L349.62 541.28L344.6 541.28L345.25 537.7C344.21 538.84 342.89 539.78 341.3 540.54C339.71 541.3 337.99 541.68 336.13 541.68C334.32 541.68 332.71 541.27 331.3 540.45C329.89 539.64 328.78 538.48 327.98 536.98C327.18 535.48 326.78 533.76 326.78 531.81C326.78 530.93 326.87 530.04 327.04 529.14C327.48 526.73 328.36 524.59 329.69 522.72C331.01 520.86 332.63 519.41 334.55 518.38C336.48 517.34 338.48 516.83 340.58 516.83ZM346.91 527.44C346.91 525.49 346.34 523.95 345.19 522.83C344.04 521.71 342.6 521.15 340.89 521.15C339.61 521.15 338.35 521.46 337.13 522.09C335.91 522.72 334.85 523.63 333.94 524.84C333.04 526.05 332.44 527.48 332.15 529.14C332.04 529.7 331.98 530.29 331.98 530.93C331.98 532.91 332.55 534.48 333.7 535.63C334.85 536.78 336.29 537.35 338 537.35C339.29 537.35 340.54 537.03 341.76 536.39C342.98 535.75 344.05 534.81 344.95 533.57C345.85 532.34 346.45 530.89 346.74 529.23C346.85 528.68 346.91 528.08 346.91 527.44ZM370.63 516.83C373.54 516.83 375.82 517.52 377.48 518.9C379.14 520.28 380.09 522.26 380.32 524.82L374.95 524.82C374.72 523.63 374.18 522.69 373.33 522.02C372.49 521.35 371.34 521.02 369.88 521.02C367.84 521.02 366.1 521.74 364.64 523.18C363.19 524.62 362.23 526.64 361.76 529.23C361.61 530.16 361.54 530.92 361.54 531.5C361.54 533.42 362.02 534.9 362.98 535.93C363.94 536.97 365.28 537.48 367 537.48C369.88 537.48 372.01 536.22 373.38 533.68L378.75 533.68C377.61 536.13 375.96 538.07 373.79 539.51C371.62 540.95 369.11 541.68 366.26 541.68C363.23 541.68 360.83 540.81 359.05 539.08C357.28 537.34 356.39 534.99 356.39 532.02C356.39 531.12 356.48 530.19 356.65 529.23C357.09 526.75 357.97 524.58 359.29 522.7C360.62 520.82 362.26 519.37 364.23 518.36C366.19 517.34 368.33 516.83 370.63 516.83ZM406.91 526.17C406.91 526.84 406.84 527.64 406.7 528.57C406.58 529.22 406.38 530 406.08 530.93L387.7 530.93C387.67 531.14 387.66 531.44 387.66 531.85C387.66 533.57 388.19 534.94 389.25 535.95C390.31 536.97 391.7 537.48 393.42 537.48C396.13 537.48 398.21 536.36 399.67 534.12L405.04 534.12C403.93 536.33 402.3 538.15 400.15 539.56C397.99 540.97 395.5 541.68 392.68 541.68C390.67 541.68 388.91 541.28 387.39 540.5C385.88 539.71 384.7 538.58 383.86 537.11C383.01 535.64 382.59 533.92 382.59 531.94C382.59 531.09 382.68 530.19 382.85 529.23C383.29 526.75 384.18 524.58 385.52 522.7C386.86 520.82 388.52 519.37 390.52 518.36C392.51 517.34 394.69 516.83 397.05 516.83C400.04 516.83 402.44 517.67 404.23 519.36C406.02 521.05 406.91 523.32 406.91 526.17ZM401.81 526.22C401.81 524.62 401.27 523.35 400.21 522.42C399.15 521.49 397.77 521.02 396.08 521.02C394.31 521.02 392.71 521.59 391.28 522.72C389.85 523.86 388.88 525.4 388.35 527.35L401.72 527.35C401.78 526.83 401.81 526.45 401.81 526.22ZM432.59 515.52L432.29 517.22L436.74 517.22L436.04 521.28L431.59 521.28L428.05 541.28L423.03 541.28L426.57 521.28L423.73 521.28L424.43 517.22L427.26 517.22L427.57 515.52C428.06 512.75 429.16 510.74 430.85 509.47C432.53 508.2 434.95 507.57 438.09 507.57L437.4 511.72C435.88 511.72 434.76 512.01 434.03 512.59C433.31 513.17 432.82 514.15 432.59 515.52ZM437.18 531.54C437.18 528.84 437.81 526.36 439.08 524.12C440.34 521.88 442.09 520.1 444.32 518.79C446.54 517.48 449.03 516.83 451.76 516.83C453.8 516.83 455.61 517.26 457.18 518.12C458.75 518.97 459.98 520.17 460.87 521.7C461.76 523.23 462.2 524.99 462.2 527C462.2 529.71 461.54 532.18 460.23 534.43C458.92 536.67 457.15 538.44 454.91 539.73C452.67 541.03 450.18 541.68 447.44 541.68C445.4 541.68 443.61 541.25 442.07 540.41C440.53 539.56 439.32 538.37 438.47 536.83C437.61 535.29 437.18 533.52 437.18 531.54ZM457.05 527.31C457.05 525.3 456.48 523.75 455.34 522.66C454.21 521.57 452.78 521.02 451.06 521.02C449.38 521.02 447.87 521.49 446.54 522.44C445.22 523.39 444.19 524.65 443.44 526.24C442.7 527.82 442.33 529.52 442.33 531.33C442.33 533.28 442.86 534.79 443.92 535.87C444.99 536.94 446.36 537.48 448.05 537.48C449.71 537.48 451.23 537.01 452.61 536.06C454 535.12 455.08 533.87 455.87 532.31C456.65 530.75 457.05 529.08 457.05 527.31ZM481.28 516.83L480.37 521.98L479.1 521.98C477.18 521.98 475.64 522.46 474.47 523.42C473.31 524.38 472.49 526.04 472.03 528.4L469.75 541.28L464.78 541.28L469.01 517.22L473.99 517.22L473.25 521.46C474.24 520 475.41 518.87 476.76 518.05C478.12 517.24 479.62 516.83 481.28 516.83Z"/><path fill="#FFFFFF" d="M140.79 574.04C140.79 574.71 140.72 575.51 140.58 576.45C140.46 577.09 140.26 577.87 139.96 578.8L121.58 578.8C121.55 579.01 121.54 579.31 121.54 579.72C121.54 581.44 122.07 582.81 123.13 583.83C124.19 584.85 125.58 585.35 127.3 585.35C130.01 585.35 132.09 584.23 133.55 581.99L138.92 581.99C137.81 584.21 136.18 586.02 134.03 587.43C131.87 588.84 129.38 589.55 126.56 589.55C124.55 589.55 122.79 589.15 121.27 588.37C119.76 587.58 118.58 586.45 117.74 584.98C116.89 583.51 116.47 581.79 116.47 579.81C116.47 578.96 116.56 578.06 116.73 577.1C117.17 574.63 118.06 572.45 119.4 570.57C120.74 568.7 122.4 567.25 124.4 566.23C126.39 565.21 128.57 564.7 130.92 564.7C133.92 564.7 136.32 565.54 138.11 567.23C139.9 568.92 140.79 571.19 140.79 574.04ZM135.68 574.09C135.68 572.49 135.15 571.22 134.09 570.29C133.03 569.36 131.65 568.89 129.96 568.89C128.19 568.89 126.59 569.46 125.16 570.59C123.73 571.73 122.76 573.27 122.23 575.22L135.6 575.22C135.66 574.7 135.68 574.32 135.68 574.09ZM153.28 584.7L163.55 565.09L168.92 565.09L155.51 589.15L149.48 589.15L144.59 565.09L149.92 565.09ZM192.89 574.04C192.89 574.71 192.82 575.51 192.67 576.45C192.56 577.09 192.35 577.87 192.06 578.8L173.68 578.8C173.65 579.01 173.63 579.31 173.63 579.72C173.63 581.44 174.16 582.81 175.23 583.83C176.29 584.85 177.68 585.35 179.4 585.35C182.11 585.35 184.19 584.23 185.64 581.99L191.01 581.99C189.91 584.21 188.28 586.02 186.12 587.43C183.97 588.84 181.48 589.55 178.66 589.55C176.65 589.55 174.89 589.15 173.37 588.37C171.86 587.58 170.68 586.45 169.83 584.98C168.99 583.51 168.57 581.79 168.57 579.81C168.57 578.96 168.66 578.06 168.83 577.1C169.27 574.63 170.15 572.45 171.49 570.57C172.83 568.7 174.5 567.25 176.49 566.23C178.49 565.21 180.66 564.7 183.02 564.7C186.02 564.7 188.42 565.54 190.21 567.23C192 568.92 192.89 571.19 192.89 574.04ZM187.78 574.09C187.78 572.49 187.25 571.22 186.19 570.29C185.13 569.36 183.75 568.89 182.06 568.89C180.29 568.89 178.68 569.46 177.26 570.59C175.83 571.73 174.86 573.27 174.33 575.22L187.69 575.22C187.75 574.7 187.78 574.32 187.78 574.09ZM211.8 564.7L210.88 569.85L209.62 569.85C207.7 569.85 206.15 570.33 204.99 571.29C203.82 572.25 203.01 573.91 202.54 576.27L200.27 589.15L195.29 589.15L199.53 565.09L204.51 565.09L203.77 569.33C204.76 567.87 205.93 566.74 207.28 565.92C208.63 565.11 210.14 564.7 211.8 564.7ZM219.01 565.09L222.54 583.43L232.81 565.09L237.96 565.09L217 600.46L211.84 600.46L218.79 588.76L213.46 565.09ZM251.54 564.7C253.11 564.7 254.6 565.04 255.99 565.73C257.39 566.41 258.45 567.32 259.18 568.45L261.23 556.84L266.26 556.84L260.54 589.15L255.51 589.15L256.17 585.53C255.12 586.72 253.82 587.69 252.26 588.43C250.7 589.18 248.99 589.55 247.13 589.55C245.29 589.55 243.66 589.14 242.24 588.32C240.81 587.51 239.7 586.35 238.9 584.85C238.1 583.35 237.7 581.63 237.7 579.68C237.7 578.8 237.78 577.92 237.96 577.01C238.39 574.6 239.28 572.46 240.6 570.59C241.92 568.73 243.55 567.28 245.47 566.25C247.39 565.22 249.41 564.7 251.54 564.7ZM257.83 575.31C257.83 573.36 257.25 571.82 256.1 570.7C254.95 569.58 253.52 569.02 251.8 569.02C250.52 569.02 249.27 569.34 248.05 569.96C246.82 570.59 245.76 571.5 244.86 572.71C243.96 573.92 243.36 575.35 243.07 577.01C242.95 577.57 242.89 578.16 242.89 578.8C242.89 580.78 243.47 582.35 244.62 583.5C245.77 584.65 247.2 585.22 248.92 585.22C250.2 585.22 251.45 584.9 252.67 584.26C253.9 583.62 254.96 582.68 255.86 581.45C256.77 580.21 257.36 578.76 257.65 577.1C257.77 576.55 257.83 575.95 257.83 575.31ZM281.1 564.7C283 564.7 284.58 565.07 285.86 565.81C287.14 566.56 288.1 567.48 288.75 568.59L289.36 565.09L294.38 565.09L290.14 589.15L285.12 589.15L285.78 585.57C284.73 586.71 283.41 587.65 281.82 588.41C280.24 589.17 278.51 589.55 276.65 589.55C274.84 589.55 273.24 589.14 271.82 588.32C270.41 587.51 269.31 586.35 268.5 584.85C267.7 583.35 267.3 581.63 267.3 579.68C267.3 578.8 267.39 577.92 267.57 577.01C268 574.6 268.88 572.46 270.21 570.59C271.53 568.73 273.16 567.28 275.08 566.25C277 565.22 279.01 564.7 281.1 564.7ZM287.44 575.31C287.44 573.36 286.86 571.82 285.71 570.7C284.56 569.58 283.13 569.02 281.41 569.02C280.13 569.02 278.88 569.34 277.65 569.96C276.43 570.59 275.37 571.5 274.47 572.71C273.56 573.92 272.97 575.35 272.68 577.01C272.56 577.57 272.5 578.16 272.5 578.8C272.5 580.78 273.08 582.35 274.23 583.5C275.38 584.65 276.81 585.22 278.53 585.22C279.81 585.22 281.06 584.9 282.28 584.26C283.51 583.62 284.57 582.68 285.47 581.45C286.37 580.21 286.97 578.76 287.26 577.1C287.38 576.55 287.44 575.95 287.44 575.31ZM303.64 565.09L307.17 583.43L317.44 565.09L322.59 565.09L301.63 600.46L296.47 600.46L303.42 588.76L298.09 565.09ZM349.66 564.7C352.58 564.7 354.86 565.39 356.52 566.77C358.18 568.16 359.13 570.13 359.36 572.69L353.99 572.69C353.75 571.5 353.22 570.57 352.37 569.9C351.53 569.23 350.38 568.89 348.92 568.89C346.88 568.89 345.14 569.61 343.68 571.05C342.23 572.49 341.26 574.51 340.8 577.1C340.65 578.03 340.58 578.79 340.58 579.37C340.58 581.29 341.06 582.77 342.02 583.8C342.98 584.84 344.32 585.35 346.04 585.35C348.92 585.35 351.05 584.09 352.42 581.56L357.79 581.56C356.65 584 355 585.94 352.83 587.39C350.66 588.83 348.15 589.55 345.3 589.55C342.27 589.55 339.87 588.68 338.09 586.95C336.32 585.22 335.43 582.87 335.43 579.9C335.43 578.99 335.52 578.06 335.69 577.1C336.13 574.63 337.01 572.45 338.33 570.57C339.66 568.7 341.3 567.25 343.27 566.23C345.23 565.21 347.36 564.7 349.66 564.7ZM361.67 579.42C361.67 576.71 362.31 574.23 363.57 571.99C364.84 569.75 366.59 567.97 368.81 566.66C371.04 565.35 373.52 564.7 376.26 564.7C378.3 564.7 380.1 565.13 381.67 565.99C383.25 566.85 384.48 568.04 385.36 569.57C386.25 571.1 386.7 572.87 386.7 574.87C386.7 577.58 386.04 580.06 384.73 582.3C383.42 584.54 381.64 586.31 379.4 587.6C377.16 588.9 374.67 589.55 371.94 589.55C369.9 589.55 368.11 589.13 366.56 588.28C365.02 587.44 363.82 586.24 362.96 584.7C362.1 583.16 361.67 581.4 361.67 579.42ZM381.54 575.18C381.54 573.17 380.97 571.62 379.84 570.53C378.7 569.44 377.28 568.89 375.56 568.89C373.87 568.89 372.36 569.36 371.04 570.31C369.72 571.26 368.68 572.52 367.94 574.11C367.2 575.7 366.83 577.39 366.83 579.2C366.83 581.15 367.36 582.66 368.42 583.74C369.48 584.82 370.86 585.35 372.55 585.35C374.21 585.35 375.73 584.88 377.11 583.94C378.49 582.99 379.58 581.74 380.36 580.18C381.15 578.62 381.54 576.96 381.54 575.18ZM389.53 579.42C389.53 576.71 390.17 574.23 391.43 571.99C392.7 569.75 394.45 567.97 396.67 566.66C398.9 565.35 401.38 564.7 404.12 564.7C406.16 564.7 407.96 565.13 409.53 565.99C411.11 566.85 412.34 568.04 413.22 569.57C414.11 571.1 414.56 572.87 414.56 574.87C414.56 577.58 413.9 580.06 412.59 582.3C411.28 584.54 409.51 586.31 407.26 587.6C405.02 588.9 402.53 589.55 399.8 589.55C397.76 589.55 395.97 589.13 394.42 588.28C392.88 587.44 391.68 586.24 390.82 584.7C389.96 583.16 389.53 581.4 389.53 579.42ZM409.4 575.18C409.4 573.17 408.84 571.62 407.7 570.53C406.56 569.44 405.14 568.89 403.42 568.89C401.73 568.89 400.23 569.36 398.9 570.31C397.58 571.26 396.54 572.52 395.8 574.11C395.06 575.7 394.69 577.39 394.69 579.2C394.69 581.15 395.22 582.66 396.28 583.74C397.34 584.82 398.72 585.35 400.41 585.35C402.07 585.35 403.59 584.88 404.97 583.94C406.35 582.99 407.44 581.74 408.22 580.18C409.01 578.62 409.4 576.96 409.4 575.18ZM428.75 577.15L437.74 589.15L431.02 589.15L423.95 578.8L422.11 589.15L417.13 589.15L422.85 556.84L427.83 556.84L424.51 575.57L435.08 565.09L441.98 565.09ZM441.24 582.73C441.24 582.5 441.27 582.18 441.33 581.77L446.17 581.77C446.06 582.88 446.39 583.8 447.18 584.53C447.96 585.25 449.07 585.62 450.5 585.62C451.89 585.62 453.04 585.37 453.95 584.87C454.85 584.38 455.3 583.65 455.3 582.69C455.3 581.88 454.93 581.22 454.19 580.73C453.44 580.23 452.26 579.68 450.63 579.07C449.08 578.46 447.83 577.89 446.87 577.36C445.91 576.84 445.08 576.12 444.38 575.2C443.68 574.28 443.33 573.14 443.33 571.77C443.33 570.38 443.73 569.15 444.54 568.08C445.34 567.02 446.46 566.19 447.9 565.59C449.34 565 450.99 564.7 452.85 564.7C454.54 564.7 456.05 564.98 457.37 565.55C458.7 566.12 459.73 566.92 460.47 567.95C461.22 568.99 461.59 570.17 461.59 571.51C461.59 571.92 461.57 572.23 461.54 572.43L456.83 572.43C456.94 571.29 456.62 570.38 455.85 569.68C455.07 568.98 453.98 568.63 452.55 568.63C451.3 568.63 450.29 568.89 449.51 569.42C448.74 569.94 448.36 570.65 448.36 571.56C448.36 572.46 448.75 573.18 449.54 573.72C450.32 574.26 451.53 574.85 453.16 575.49C454.64 576.07 455.85 576.62 456.78 577.15C457.72 577.67 458.52 578.37 459.19 579.24C459.86 580.11 460.19 581.21 460.19 582.52C460.19 583.94 459.76 585.19 458.9 586.25C458.04 587.31 456.86 588.13 455.34 588.7C453.83 589.26 452.11 589.55 450.19 589.55C448.53 589.55 447.02 589.26 445.65 588.7C444.28 588.13 443.2 587.33 442.42 586.29C441.63 585.26 441.24 584.07 441.24 582.73Z"/></svg>
