<svg xmlns="http://www.w3.org/2000/svg" viewBox="0 0 777.72 349.35" width="778" height="349" role="img" aria-label="Base — mise en place for everyday cooks"><title>Base — mise en place for everyday cooks</title><rect width="777.72" height="349.35" rx="0" fill="#141413"/><path fill="#F4F1EA" d="M135.437 101.019C135.437 120.027 120.027 135.437 101.019 135.437C82.01 135.437 66.6 120.027 66.6 101.019C66.6 82.01 82.01 66.6 101.019 66.6C120.027 66.6 135.437 82.01 135.437 101.019ZM120.981 101.019C120.981 89.993 112.044 81.056 101.019 81.056C89.993 81.056 81.056 89.993 81.056 101.019C81.056 112.044 89.993 120.981 101.019 120.981C112.044 120.981 120.981 112.044 120.981 101.019ZM214.6 101.019C214.6 120.027 199.19 135.437 180.181 135.437C161.173 135.437 145.763 120.027 145.763 101.019C145.763 82.01 161.173 66.6 180.181 66.6C199.19 66.6 214.6 82.01 214.6 101.019ZM200.144 101.019C200.144 89.993 191.207 81.056 180.181 81.056C169.156 81.056 160.219 89.993 160.219 101.019C160.219 112.044 169.156 120.981 180.181 120.981C191.207 120.981 200.144 112.044 200.144 101.019ZM214.6 180.181C214.6 199.19 199.19 214.6 180.181 214.6C161.173 214.6 145.763 199.19 145.763 180.181C145.763 161.173 161.173 145.763 180.181 145.763C199.19 145.763 214.6 161.173 214.6 180.181ZM200.144 180.181C200.144 169.156 191.207 160.219 180.181 160.219C169.156 160.219 160.219 169.156 160.219 180.181C160.219 191.207 169.156 200.144 180.181 200.144C191.207 200.144 200.144 191.207 200.144 180.181Z"/><path fill="#E2553A" d="M135.437 180.181C135.437 199.19 120.027 214.6 101.019 214.6C82.01 214.6 66.6 199.19 66.6 180.181C66.6 161.173 82.01 145.763 101.019 145.763C120.027 145.763 135.437 161.173 135.437 180.181Z"/><path fill="#F4F1EA" d="M311.32 102.6C321.053 102.6 329.853 104.933 337.72 109.6C345.587 114.267 351.787 120.9 356.32 129.5C360.853 138.1 363.12 147.933 363.12 159C363.12 170.067 360.853 179.967 356.32 188.7C351.787 197.433 345.553 204.233 337.62 209.1C329.687 213.967 320.92 216.4 311.32 216.4C302.787 216.4 295.22 214.733 288.62 211.4C282.02 208.067 276.787 203.8 272.92 198.6L272.92 214.6L250.12 214.6L250.12 66.6L272.92 66.6L272.92 120.8C276.787 115.467 282.087 111.1 288.82 107.7C295.553 104.3 303.053 102.6 311.32 102.6ZM306.32 122.4C300.587 122.4 295.153 123.867 290.02 126.8C284.887 129.733 280.753 134 277.62 139.6C274.487 145.2 272.92 151.8 272.92 159.4C272.92 167 274.487 173.633 277.62 179.3C280.753 184.967 284.887 189.267 290.02 192.2C295.153 195.133 300.587 196.6 306.32 196.6C312.187 196.6 317.687 195.1 322.82 192.1C327.953 189.1 332.087 184.733 335.22 179C338.353 173.267 339.92 166.6 339.92 159C339.92 151.4 338.353 144.833 335.22 139.3C332.087 133.767 327.953 129.567 322.82 126.7C317.687 123.833 312.187 122.4 306.32 122.4ZM424.12 102.6C432.787 102.6 440.353 104.3 446.82 107.7C453.287 111.1 458.453 115.333 462.32 120.4L462.32 104.4L485.32 104.4L485.32 214.6L462.32 214.6L462.32 198.2C458.453 203.4 453.187 207.733 446.52 211.2C439.853 214.667 432.253 216.4 423.72 216.4C414.253 216.4 405.587 213.967 397.72 209.1C389.853 204.233 383.62 197.433 379.02 188.7C374.42 179.967 372.12 170.067 372.12 159C372.12 147.933 374.42 138.133 379.02 129.6C383.62 121.067 389.887 114.433 397.82 109.7C405.753 104.967 414.52 102.6 424.12 102.6ZM428.92 122.4C423.053 122.4 417.587 123.833 412.52 126.7C407.453 129.567 403.353 133.767 400.22 139.3C397.087 144.833 395.52 151.4 395.52 159C395.52 166.6 397.087 173.267 400.22 179C403.353 184.733 407.487 189.1 412.62 192.1C417.753 195.1 423.187 196.6 428.92 196.6C434.787 196.6 440.253 195.133 445.32 192.2C450.387 189.267 454.487 184.967 457.62 179.3C460.753 173.633 462.32 167 462.32 159.4C462.32 151.8 460.753 145.2 457.62 139.6C454.487 134 450.387 129.733 445.32 126.8C440.253 123.867 434.787 122.4 428.92 122.4ZM503.32 180.8L526.92 180.8C527.32 185.467 529.553 189.367 533.62 192.5C537.687 195.633 542.787 197.2 548.92 197.2C555.32 197.2 560.287 195.967 563.82 193.5C567.353 191.033 569.12 187.867 569.12 184C569.12 179.867 567.153 176.8 563.22 174.8C559.287 172.8 553.053 170.6 544.52 168.2C536.253 165.933 529.52 163.733 524.32 161.6C519.12 159.467 514.62 156.2 510.82 151.8C507.02 147.4 505.12 141.6 505.12 134.4C505.12 128.533 506.853 123.167 510.32 118.3C513.787 113.433 518.753 109.6 525.22 106.8C531.687 104 539.12 102.6 547.52 102.6C560.053 102.6 570.153 105.767 577.82 112.1C585.487 118.433 589.587 127.067 590.12 138L567.32 138C566.92 133.067 564.92 129.133 561.32 126.2C557.72 123.267 552.853 121.8 546.72 121.8C540.72 121.8 536.12 122.933 532.92 125.2C529.72 127.467 528.12 130.467 528.12 134.2C528.12 137.133 529.187 139.6 531.32 141.6C533.453 143.6 536.053 145.167 539.12 146.3C542.187 147.433 546.72 148.867 552.72 150.6C560.72 152.733 567.287 154.9 572.42 157.1C577.553 159.3 581.987 162.533 585.72 166.8C589.453 171.067 591.387 176.733 591.52 183.8C591.52 190.067 589.787 195.667 586.32 200.6C582.853 205.533 577.953 209.4 571.62 212.2C565.287 215 557.853 216.4 549.32 216.4C540.653 216.4 532.887 214.833 526.02 211.7C519.153 208.567 513.72 204.3 509.72 198.9C505.72 193.5 503.587 187.467 503.32 180.8ZM710.32 168L626.12 168C626.787 176.8 630.053 183.867 635.92 189.2C641.787 194.533 648.987 197.2 657.52 197.2C669.787 197.2 678.453 192.067 683.52 181.8L708.12 181.8C704.787 191.933 698.753 200.233 690.02 206.7C681.287 213.167 670.453 216.4 657.52 216.4C646.987 216.4 637.553 214.033 629.22 209.3C620.887 204.567 614.353 197.9 609.62 189.3C604.887 180.7 602.52 170.733 602.52 159.4C602.52 148.067 604.82 138.1 609.42 129.5C614.02 120.9 620.487 114.267 628.82 109.6C637.153 104.933 646.72 102.6 657.52 102.6C667.92 102.6 677.187 104.867 685.32 109.4C693.453 113.933 699.787 120.3 704.32 128.5C708.853 136.7 711.12 146.133 711.12 156.8C711.12 160.933 710.853 164.667 710.32 168ZM687.32 149.6C687.187 141.2 684.187 134.467 678.32 129.4C672.453 124.333 665.187 121.8 656.52 121.8C648.653 121.8 641.92 124.3 636.32 129.3C630.72 134.3 627.387 141.067 626.32 149.6Z"/><path fill="#F4F1EA" d="M274.098 266.883L274.098 275.674L271.649 275.674L271.649 267.236C271.649 265.749 271.281 264.61 270.546 263.821C269.811 263.031 268.818 262.637 267.566 262.637C266.278 262.637 265.253 263.05 264.491 263.875C263.728 264.701 263.347 265.894 263.347 267.454L263.347 275.674L260.898 275.674L260.898 267.236C260.898 265.749 260.53 264.61 259.796 263.821C259.061 263.031 258.067 262.637 256.815 262.637C255.527 262.637 254.502 263.05 253.74 263.875C252.978 264.701 252.597 265.894 252.597 267.454L252.597 275.674L250.12 275.674L250.12 260.759L252.597 260.759L252.597 262.909C253.087 262.129 253.744 261.53 254.57 261.113C255.396 260.695 256.307 260.487 257.305 260.487C258.557 260.487 259.664 260.768 260.626 261.33C261.587 261.893 262.304 262.718 262.776 263.807C263.193 262.755 263.883 261.938 264.844 261.358C265.806 260.777 266.877 260.487 268.056 260.487C269.217 260.487 270.251 260.727 271.159 261.208C272.066 261.689 272.783 262.41 273.309 263.372C273.835 264.333 274.098 265.504 274.098 266.883ZM278.017 256.649C278.017 256.177 278.181 255.778 278.507 255.452C278.834 255.125 279.233 254.962 279.705 254.962C280.158 254.962 280.544 255.125 280.861 255.452C281.179 255.778 281.338 256.177 281.338 256.649C281.338 257.121 281.179 257.52 280.861 257.847C280.544 258.173 280.158 258.337 279.705 258.337C279.233 258.337 278.834 258.173 278.507 257.847C278.181 257.52 278.017 257.121 278.017 256.649ZM280.902 260.759L280.902 275.674L278.426 275.674L278.426 260.759ZM284.577 271.292L287.135 271.292C287.208 272.036 287.557 272.644 288.183 273.115C288.809 273.587 289.63 273.823 290.646 273.823C291.589 273.823 292.333 273.614 292.878 273.197C293.422 272.78 293.694 272.253 293.694 271.618C293.694 270.965 293.404 270.48 292.823 270.162C292.243 269.845 291.345 269.532 290.129 269.223C289.022 268.933 288.119 268.638 287.421 268.339C286.722 268.039 286.123 267.595 285.624 267.005C285.125 266.415 284.876 265.64 284.876 264.678C284.876 263.916 285.103 263.217 285.556 262.582C286.01 261.947 286.654 261.444 287.489 261.072C288.323 260.7 289.276 260.514 290.347 260.514C291.998 260.514 293.331 260.931 294.347 261.766C295.364 262.601 295.908 263.744 295.98 265.195L293.504 265.195C293.449 264.415 293.136 263.789 292.565 263.317C291.993 262.845 291.227 262.61 290.265 262.61C289.376 262.61 288.668 262.8 288.142 263.181C287.616 263.562 287.353 264.061 287.353 264.678C287.353 265.168 287.511 265.572 287.829 265.889C288.147 266.207 288.546 266.461 289.027 266.651C289.507 266.842 290.174 267.055 291.027 267.291C292.098 267.581 292.968 267.867 293.64 268.148C294.311 268.429 294.887 268.851 295.368 269.414C295.849 269.976 296.098 270.711 296.117 271.618C296.117 272.435 295.89 273.17 295.436 273.823C294.983 274.476 294.343 274.989 293.517 275.361C292.692 275.733 291.744 275.919 290.673 275.919C289.53 275.919 288.505 275.724 287.598 275.334C286.69 274.943 285.974 274.399 285.448 273.7C284.921 273.002 284.631 272.199 284.577 271.292ZM313.399 269.142L301.478 269.142C301.569 270.611 302.073 271.759 302.989 272.585C303.905 273.41 305.017 273.823 306.323 273.823C307.393 273.823 308.287 273.573 309.004 273.075C309.72 272.576 310.224 271.909 310.514 271.074L313.182 271.074C312.782 272.507 311.984 273.673 310.786 274.571C309.589 275.47 308.101 275.919 306.323 275.919C304.908 275.919 303.642 275.601 302.526 274.966C301.41 274.331 300.535 273.428 299.9 272.258C299.265 271.088 298.947 269.731 298.947 268.189C298.947 266.647 299.256 265.295 299.873 264.134C300.489 262.972 301.356 262.079 302.472 261.453C303.588 260.827 304.871 260.514 306.323 260.514C307.738 260.514 308.99 260.822 310.079 261.439C311.168 262.056 312.007 262.904 312.596 263.984C313.186 265.064 313.481 266.284 313.481 267.645C313.481 268.116 313.454 268.615 313.399 269.142ZM306.214 262.61C304.962 262.61 303.896 263.009 303.016 263.807C302.136 264.606 301.633 265.712 301.506 267.128L310.923 267.128C310.923 266.184 310.714 265.372 310.297 264.692C309.879 264.011 309.312 263.494 308.596 263.14C307.879 262.787 307.085 262.61 306.214 262.61ZM338.085 269.142L326.164 269.142C326.255 270.611 326.758 271.759 327.675 272.585C328.591 273.41 329.702 273.823 331.009 273.823C332.079 273.823 332.973 273.573 333.69 273.075C334.406 272.576 334.91 271.909 335.2 271.074L337.867 271.074C337.468 272.507 336.67 273.673 335.472 274.571C334.275 275.47 332.787 275.919 331.009 275.919C329.593 275.919 328.328 275.601 327.212 274.966C326.096 274.331 325.221 273.428 324.585 272.258C323.95 271.088 323.633 269.731 323.633 268.189C323.633 266.647 323.941 265.295 324.558 264.134C325.175 262.972 326.042 262.079 327.157 261.453C328.273 260.827 329.557 260.514 331.009 260.514C332.424 260.514 333.676 260.822 334.765 261.439C335.853 262.056 336.692 262.904 337.282 263.984C337.872 265.064 338.167 266.284 338.167 267.645C338.167 268.116 338.139 268.615 338.085 269.142ZM330.9 262.61C329.648 262.61 328.582 263.009 327.702 263.807C326.822 264.606 326.318 265.712 326.191 267.128L335.608 267.128C335.608 266.184 335.4 265.372 334.982 264.692C334.565 264.011 333.998 263.494 333.281 263.14C332.565 262.787 331.771 262.61 330.9 262.61ZM355.068 266.883L355.068 275.674L352.619 275.674L352.619 267.236C352.619 265.749 352.247 264.61 351.503 263.821C350.759 263.031 349.743 262.637 348.455 262.637C347.148 262.637 346.11 263.045 345.338 263.862C344.567 264.678 344.182 265.867 344.182 267.427L344.182 275.674L341.705 275.674L341.705 260.759L344.182 260.759L344.182 262.882C344.672 262.12 345.338 261.53 346.182 261.113C347.026 260.695 347.956 260.487 348.972 260.487C350.786 260.487 352.256 261.036 353.381 262.133C354.506 263.231 355.068 264.814 355.068 266.883ZM374.991 260.514C376.316 260.514 377.518 260.831 378.597 261.466C379.677 262.102 380.525 262.995 381.142 264.147C381.759 265.3 382.068 266.638 382.068 268.162C382.068 269.668 381.759 271.011 381.142 272.19C380.525 273.369 379.677 274.286 378.597 274.939C377.518 275.592 376.316 275.919 374.991 275.919C373.721 275.919 372.601 275.633 371.63 275.061C370.659 274.49 369.92 273.778 369.412 272.925L369.412 282.75L366.935 282.75L366.935 260.759L369.412 260.759L369.412 263.508C369.902 262.655 370.632 261.943 371.603 261.371C372.573 260.8 373.703 260.514 374.991 260.514ZM374.474 262.664C373.567 262.664 372.728 262.886 371.956 263.331C371.185 263.775 370.568 264.42 370.106 265.263C369.643 266.107 369.412 267.082 369.412 268.189C369.412 269.314 369.643 270.298 370.106 271.142C370.568 271.986 371.185 272.63 371.956 273.075C372.728 273.519 373.567 273.741 374.474 273.741C375.399 273.741 376.248 273.519 377.019 273.075C377.79 272.63 378.402 271.986 378.856 271.142C379.31 270.298 379.536 269.305 379.536 268.162C379.536 267.037 379.31 266.057 378.856 265.222C378.402 264.388 377.79 263.753 377.019 263.317C376.248 262.882 375.399 262.664 374.474 262.664ZM388.083 255.533L388.083 275.674L385.606 275.674L385.606 255.533ZM398.724 260.514C400.031 260.514 401.165 260.795 402.126 261.358C403.088 261.92 403.805 262.628 404.277 263.481L404.277 260.759L406.781 260.759L406.781 275.674L404.277 275.674L404.277 272.898C403.787 273.769 403.056 274.49 402.086 275.061C401.115 275.633 399.985 275.919 398.697 275.919C397.373 275.919 396.175 275.592 395.104 274.939C394.034 274.286 393.19 273.369 392.573 272.19C391.956 271.011 391.648 269.668 391.648 268.162C391.648 266.638 391.956 265.3 392.573 264.147C393.19 262.995 394.038 262.102 395.118 261.466C396.198 260.831 397.4 260.514 398.724 260.514ZM399.214 262.664C398.289 262.664 397.445 262.882 396.683 263.317C395.921 263.753 395.313 264.388 394.86 265.222C394.406 266.057 394.179 267.037 394.179 268.162C394.179 269.305 394.406 270.298 394.86 271.142C395.313 271.986 395.921 272.63 396.683 273.075C397.445 273.519 398.289 273.741 399.214 273.741C400.14 273.741 400.988 273.519 401.759 273.075C402.53 272.63 403.143 271.986 403.596 271.142C404.05 270.298 404.277 269.314 404.277 268.189C404.277 267.064 404.05 266.084 403.596 265.25C403.143 264.415 402.53 263.775 401.759 263.331C400.988 262.886 400.14 262.664 399.214 262.664ZM417.586 260.514C419.418 260.514 420.929 260.958 422.117 261.848C423.306 262.737 424.09 263.97 424.472 265.549L421.804 265.549C421.55 264.642 421.056 263.925 420.321 263.399C419.586 262.873 418.674 262.61 417.586 262.61C416.17 262.61 415.027 263.095 414.156 264.066C413.285 265.036 412.85 266.411 412.85 268.189C412.85 269.985 413.285 271.373 414.156 272.353C415.027 273.333 416.17 273.823 417.586 273.823C418.674 273.823 419.582 273.569 420.307 273.061C421.033 272.553 421.532 271.827 421.804 270.884L424.472 270.884C424.072 272.408 423.274 273.628 422.076 274.544C420.879 275.461 419.382 275.919 417.586 275.919C416.17 275.919 414.914 275.601 413.816 274.966C412.718 274.331 411.861 273.433 411.244 272.272C410.627 271.11 410.319 269.75 410.319 268.189C410.319 266.647 410.627 265.3 411.244 264.147C411.861 262.995 412.718 262.102 413.816 261.466C414.914 260.831 416.17 260.514 417.586 260.514ZM441.564 269.142L429.643 269.142C429.733 270.611 430.237 271.759 431.153 272.585C432.07 273.41 433.181 273.823 434.487 273.823C435.558 273.823 436.451 273.573 437.168 273.075C437.885 272.576 438.388 271.909 438.679 271.074L441.346 271.074C440.947 272.507 440.148 273.673 438.951 274.571C437.753 275.47 436.266 275.919 434.487 275.919C433.072 275.919 431.806 275.601 430.691 274.966C429.575 274.331 428.699 273.428 428.064 272.258C427.429 271.088 427.112 269.731 427.112 268.189C427.112 266.647 427.42 265.295 428.037 264.134C428.654 262.972 429.52 262.079 430.636 261.453C431.752 260.827 433.036 260.514 434.487 260.514C435.903 260.514 437.155 260.822 438.243 261.439C439.332 262.056 440.171 262.904 440.761 263.984C441.351 265.064 441.645 266.284 441.645 267.645C441.645 268.116 441.618 268.615 441.564 269.142ZM434.378 262.61C433.126 262.61 432.06 263.009 431.18 263.807C430.3 264.606 429.797 265.712 429.67 267.128L439.087 267.128C439.087 266.184 438.878 265.372 438.461 264.692C438.044 264.011 437.477 263.494 436.76 263.14C436.043 262.787 435.249 262.61 434.378 262.61ZM458.792 262.8L455.662 262.8L455.662 275.674L453.185 275.674L453.185 262.8L451.253 262.8L451.253 260.759L453.185 260.759L453.185 259.697C453.185 258.028 453.616 256.808 454.478 256.037C455.34 255.266 456.724 254.88 458.629 254.88L458.629 256.948C457.54 256.948 456.773 257.162 456.329 257.588C455.884 258.014 455.662 258.718 455.662 259.697L455.662 260.759L458.792 260.759ZM461.024 268.189C461.024 266.665 461.355 265.318 462.017 264.147C462.68 262.977 463.582 262.079 464.725 261.453C465.868 260.827 467.148 260.514 468.563 260.514C469.978 260.514 471.257 260.827 472.4 261.453C473.544 262.079 474.446 262.972 475.109 264.134C475.771 265.295 476.102 266.647 476.102 268.189C476.102 269.731 475.762 271.088 475.081 272.258C474.401 273.428 473.48 274.331 472.319 274.966C471.158 275.601 469.869 275.919 468.454 275.919C467.057 275.919 465.791 275.601 464.657 274.966C463.523 274.331 462.634 273.428 461.99 272.258C461.346 271.088 461.024 269.731 461.024 268.189ZM473.571 268.189C473.571 266.992 473.335 265.975 472.863 265.141C472.391 264.306 471.775 263.685 471.012 263.276C470.25 262.868 469.425 262.664 468.536 262.664C467.628 262.664 466.798 262.868 466.045 263.276C465.292 263.685 464.689 264.306 464.235 265.141C463.782 265.975 463.555 266.992 463.555 268.189C463.555 269.405 463.777 270.43 464.222 271.265C464.666 272.099 465.261 272.721 466.005 273.129C466.748 273.537 467.565 273.741 468.454 273.741C469.343 273.741 470.178 273.533 470.958 273.115C471.738 272.698 472.369 272.072 472.85 271.237C473.33 270.403 473.571 269.387 473.571 268.189ZM486.934 260.487L486.934 263.045L486.281 263.045C483.505 263.045 482.117 264.551 482.117 267.563L482.117 275.674L479.64 275.674L479.64 260.759L482.117 260.759L482.117 263.181C482.552 262.328 483.174 261.666 483.981 261.194C484.789 260.723 485.773 260.487 486.934 260.487ZM511.13 269.142L499.209 269.142C499.3 270.611 499.803 271.759 500.72 272.585C501.636 273.41 502.747 273.823 504.054 273.823C505.124 273.823 506.018 273.573 506.735 273.075C507.451 272.576 507.955 271.909 508.245 271.074L510.912 271.074C510.513 272.507 509.715 273.673 508.517 274.571C507.32 275.47 505.832 275.919 504.054 275.919C502.638 275.919 501.373 275.601 500.257 274.966C499.141 274.331 498.266 273.428 497.631 272.258C496.996 271.088 496.678 269.731 496.678 268.189C496.678 266.647 496.986 265.295 497.603 264.134C498.22 262.972 499.087 262.079 500.203 261.453C501.318 260.827 502.602 260.514 504.054 260.514C505.469 260.514 506.721 260.822 507.81 261.439C508.898 262.056 509.738 262.904 510.327 263.984C510.917 265.064 511.212 266.284 511.212 267.645C511.212 268.116 511.185 268.615 511.13 269.142ZM503.945 262.61C502.693 262.61 501.627 263.009 500.747 263.807C499.867 264.606 499.363 265.712 499.236 267.128L508.653 267.128C508.653 266.184 508.445 265.372 508.027 264.692C507.61 264.011 507.043 263.494 506.326 263.14C505.61 262.787 504.816 262.61 503.945 262.61ZM520.302 273.387L524.929 260.759L527.569 260.759L521.718 275.674L518.833 275.674L512.981 260.759L515.648 260.759ZM543.818 269.142L531.897 269.142C531.987 270.611 532.491 271.759 533.407 272.585C534.323 273.41 535.435 273.823 536.741 273.823C537.812 273.823 538.705 273.573 539.422 273.075C540.139 272.576 540.642 271.909 540.933 271.074L543.6 271.074C543.201 272.507 542.402 273.673 541.205 274.571C540.007 275.47 538.519 275.919 536.741 275.919C535.326 275.919 534.06 275.601 532.945 274.966C531.829 274.331 530.953 273.428 530.318 272.258C529.683 271.088 529.365 269.731 529.365 268.189C529.365 266.647 529.674 265.295 530.291 264.134C530.908 262.972 531.774 262.079 532.89 261.453C534.006 260.827 535.29 260.514 536.741 260.514C538.157 260.514 539.409 260.822 540.497 261.439C541.586 262.056 542.425 262.904 543.015 263.984C543.604 265.064 543.899 266.284 543.899 267.645C543.899 268.116 543.872 268.615 543.818 269.142ZM536.632 262.61C535.38 262.61 534.314 263.009 533.434 263.807C532.554 264.606 532.051 265.712 531.924 267.128L541.341 267.128C541.341 266.184 541.132 265.372 540.715 264.692C540.298 264.011 539.731 263.494 539.014 263.14C538.297 262.787 537.503 262.61 536.632 262.61ZM554.732 260.487L554.732 263.045L554.078 263.045C551.302 263.045 549.914 264.551 549.914 267.563L549.914 275.674L547.438 275.674L547.438 260.759L549.914 260.759L549.914 263.181C550.35 262.328 550.971 261.666 551.779 261.194C552.586 260.723 553.57 260.487 554.732 260.487ZM570.708 260.759L561.726 282.696L559.168 282.696L562.107 275.51L556.092 260.759L558.841 260.759L563.523 272.843L568.15 260.759ZM579.635 260.514C580.796 260.514 581.876 260.782 582.874 261.317C583.872 261.852 584.634 262.555 585.16 263.426L585.16 255.533L587.664 255.533L587.664 275.674L585.16 275.674L585.16 272.87C584.67 273.759 583.944 274.49 582.983 275.061C582.021 275.633 580.896 275.919 579.608 275.919C578.283 275.919 577.081 275.592 576.002 274.939C574.922 274.286 574.074 273.369 573.457 272.19C572.84 271.011 572.532 269.668 572.532 268.162C572.532 266.638 572.84 265.3 573.457 264.147C574.074 262.995 574.922 262.102 576.002 261.466C577.081 260.831 578.292 260.514 579.635 260.514ZM580.098 262.664C579.172 262.664 578.329 262.882 577.567 263.317C576.805 263.753 576.197 264.388 575.743 265.222C575.289 266.057 575.063 267.037 575.063 268.162C575.063 269.305 575.289 270.298 575.743 271.142C576.197 271.986 576.805 272.63 577.567 273.075C578.329 273.519 579.172 273.741 580.098 273.741C581.023 273.741 581.871 273.519 582.643 273.075C583.414 272.63 584.026 271.986 584.48 271.142C584.933 270.298 585.16 269.314 585.16 268.189C585.16 267.064 584.933 266.084 584.48 265.25C584.026 264.415 583.414 263.775 582.643 263.331C581.871 262.886 581.023 262.664 580.098 262.664ZM598.279 260.514C599.585 260.514 600.719 260.795 601.681 261.358C602.642 261.92 603.359 262.628 603.831 263.481L603.831 260.759L606.335 260.759L606.335 275.674L603.831 275.674L603.831 272.898C603.341 273.769 602.611 274.49 601.64 275.061C600.669 275.633 599.54 275.919 598.251 275.919C596.927 275.919 595.729 275.592 594.659 274.939C593.588 274.286 592.745 273.369 592.128 272.19C591.511 271.011 591.202 269.668 591.202 268.162C591.202 266.638 591.511 265.3 592.128 264.147C592.745 262.995 593.593 262.102 594.672 261.466C595.752 260.831 596.954 260.514 598.279 260.514ZM598.769 262.664C597.843 262.664 597 262.882 596.237 263.317C595.475 263.753 594.868 264.388 594.414 265.222C593.96 266.057 593.733 267.037 593.733 268.162C593.733 269.305 593.96 270.298 594.414 271.142C594.868 271.986 595.475 272.63 596.237 273.075C597 273.519 597.843 273.741 598.769 273.741C599.694 273.741 600.542 273.519 601.313 273.075C602.085 272.63 602.697 271.986 603.151 271.142C603.604 270.298 603.831 269.314 603.831 268.189C603.831 267.064 603.604 266.084 603.151 265.25C602.697 264.415 602.085 263.775 601.313 263.331C600.542 262.886 599.694 262.664 598.769 262.664ZM623.645 260.759L614.663 282.696L612.105 282.696L615.044 275.51L609.029 260.759L611.778 260.759L616.46 272.843L621.086 260.759ZM640.274 260.514C642.107 260.514 643.618 260.958 644.806 261.848C645.994 262.737 646.779 263.97 647.16 265.549L644.493 265.549C644.239 264.642 643.745 263.925 643.01 263.399C642.275 262.873 641.363 262.61 640.274 262.61C638.859 262.61 637.716 263.095 636.845 264.066C635.974 265.036 635.539 266.411 635.539 268.189C635.539 269.985 635.974 271.373 636.845 272.353C637.716 273.333 638.859 273.823 640.274 273.823C641.363 273.823 642.27 273.569 642.996 273.061C643.722 272.553 644.221 271.827 644.493 270.884L647.16 270.884C646.761 272.408 645.963 273.628 644.765 274.544C643.568 275.461 642.071 275.919 640.274 275.919C638.859 275.919 637.603 275.601 636.505 274.966C635.407 274.331 634.55 273.433 633.933 272.272C633.316 271.11 633.007 269.75 633.007 268.189C633.007 266.647 633.316 265.3 633.933 264.147C634.55 262.995 635.407 262.102 636.505 261.466C637.603 260.831 638.859 260.514 640.274 260.514ZM649.8 268.189C649.8 266.665 650.131 265.318 650.794 264.147C651.456 262.977 652.359 262.079 653.502 261.453C654.645 260.827 655.924 260.514 657.339 260.514C658.755 260.514 660.034 260.827 661.177 261.453C662.32 262.079 663.223 262.972 663.885 264.134C664.547 265.295 664.878 266.647 664.878 268.189C664.878 269.731 664.538 271.088 663.858 272.258C663.177 273.428 662.257 274.331 661.095 274.966C659.934 275.601 658.646 275.919 657.231 275.919C655.833 275.919 654.568 275.601 653.434 274.966C652.3 274.331 651.411 273.428 650.767 272.258C650.122 271.088 649.8 269.731 649.8 268.189ZM662.347 268.189C662.347 266.992 662.111 265.975 661.64 265.141C661.168 264.306 660.551 263.685 659.789 263.276C659.027 262.868 658.201 262.664 657.312 262.664C656.405 262.664 655.575 262.868 654.822 263.276C654.069 263.685 653.466 264.306 653.012 265.141C652.558 265.975 652.331 266.992 652.331 268.189C652.331 269.405 652.554 270.43 652.998 271.265C653.443 272.099 654.037 272.721 654.781 273.129C655.525 273.537 656.341 273.741 657.231 273.741C658.12 273.741 658.954 273.533 659.734 273.115C660.515 272.698 661.145 272.072 661.626 271.237C662.107 270.403 662.347 269.387 662.347 268.189ZM667.491 268.189C667.491 266.665 667.822 265.318 668.485 264.147C669.147 262.977 670.05 262.079 671.193 261.453C672.336 260.827 673.615 260.514 675.03 260.514C676.446 260.514 677.725 260.827 678.868 261.453C680.011 262.079 680.914 262.972 681.576 264.134C682.238 265.295 682.569 266.647 682.569 268.189C682.569 269.731 682.229 271.088 681.549 272.258C680.868 273.428 679.948 274.331 678.786 274.966C677.625 275.601 676.337 275.919 674.922 275.919C673.524 275.919 672.259 275.601 671.125 274.966C669.991 274.331 669.102 273.428 668.457 272.258C667.813 271.088 667.491 269.731 667.491 268.189ZM680.038 268.189C680.038 266.992 679.802 265.975 679.331 265.141C678.859 264.306 678.242 263.685 677.48 263.276C676.718 262.868 675.892 262.664 675.003 262.664C674.096 262.664 673.266 262.868 672.513 263.276C671.76 263.685 671.157 264.306 670.703 265.141C670.249 265.975 670.022 266.992 670.022 268.189C670.022 269.405 670.245 270.43 670.689 271.265C671.134 272.099 671.728 272.721 672.472 273.129C673.216 273.537 674.032 273.741 674.922 273.741C675.811 273.741 676.645 273.533 677.425 273.115C678.206 272.698 678.836 272.072 679.317 271.237C679.798 270.403 680.038 269.387 680.038 268.189ZM694.436 275.674L688.584 269.087L688.584 275.674L686.108 275.674L686.108 255.533L688.584 255.533L688.584 267.373L694.327 260.759L697.784 260.759L690.762 268.189L697.811 275.674ZM699.58 271.292L702.138 271.292C702.211 272.036 702.56 272.644 703.186 273.115C703.812 273.587 704.633 273.823 705.649 273.823C706.593 273.823 707.337 273.614 707.881 273.197C708.426 272.78 708.698 272.253 708.698 271.618C708.698 270.965 708.407 270.48 707.827 270.162C707.246 269.845 706.348 269.532 705.132 269.223C704.025 268.933 703.123 268.638 702.424 268.339C701.726 268.039 701.127 267.595 700.628 267.005C700.129 266.415 699.879 265.64 699.879 264.678C699.879 263.916 700.106 263.217 700.56 262.582C701.013 261.947 701.658 261.444 702.492 261.072C703.327 260.7 704.279 260.514 705.35 260.514C707.001 260.514 708.335 260.931 709.351 261.766C710.367 262.601 710.911 263.744 710.984 265.195L708.507 265.195C708.453 264.415 708.14 263.789 707.568 263.317C706.997 262.845 706.23 262.61 705.268 262.61C704.379 262.61 703.672 262.8 703.145 263.181C702.619 263.562 702.356 264.061 702.356 264.678C702.356 265.168 702.515 265.572 702.832 265.889C703.15 266.207 703.549 266.461 704.03 266.651C704.511 266.842 705.178 267.055 706.03 267.291C707.101 267.581 707.972 267.867 708.643 268.148C709.315 268.429 709.891 268.851 710.372 269.414C710.852 269.976 711.102 270.711 711.12 271.618C711.12 272.435 710.893 273.17 710.44 273.823C709.986 274.476 709.346 274.989 708.521 275.361C707.695 275.733 706.747 275.919 705.677 275.919C704.534 275.919 703.508 275.724 702.601 275.334C701.694 274.943 700.977 274.399 700.451 273.7C699.925 273.002 699.634 272.199 699.58 271.292Z"/></svg>
