<svg xmlns="http://www.w3.org/2000/svg" viewBox="0 0 849.94 327.90" width="850" height="328" role="img" aria-label="Base"><title>Base</title><path fill="#F6F3EC" d="M63.95 185.16L296.55 185.16C301.07 185.16 304.74 188.83 304.74 193.35L304.74 193.35C304.74 197.88 301.07 201.54 296.55 201.54L63.95 201.54C59.43 201.54 55.76 197.88 55.76 193.35L55.76 193.35C55.76 188.83 59.43 185.16 63.95 185.16ZM81.97 193.35L278.53 193.35C278.53 235.87 234.53 270.34 180.25 270.34C125.97 270.34 81.97 235.87 81.97 193.35ZM98.35 201.54C98.35 230.49 135.02 253.96 180.25 253.96C225.48 253.96 262.15 230.49 262.15 201.54L98.35 201.54ZM194.99 157.32C194.99 165.46 188.39 172.06 180.25 172.06C172.11 172.06 165.51 165.46 165.51 157.32C165.51 149.17 172.11 142.57 180.25 142.57C188.39 142.57 194.99 149.17 194.99 157.32ZM196.35 122.21C196.35 128.99 190.85 134.49 184.06 134.49C177.28 134.49 171.78 128.99 171.78 122.21C171.78 115.42 177.28 109.92 184.06 109.92C190.85 109.92 196.35 115.42 196.35 122.21ZM201.63 90.81C201.63 96.24 197.23 100.64 191.81 100.64C186.38 100.64 181.98 96.24 181.98 90.81C181.98 85.39 186.38 80.99 191.81 80.99C197.23 80.99 201.63 85.39 201.63 90.81ZM209.73 63.13C209.73 67.2 206.43 70.5 202.36 70.5C198.29 70.5 194.99 67.2 194.99 63.13C194.99 59.06 198.29 55.76 202.36 55.76C206.43 55.76 209.73 59.06 209.73 63.13Z"/><path fill="#F6F3EC" d="M438.38 232.94C438.38 240 436.58 246.37 432.98 252.04C429.38 257.7 424.15 262.17 417.28 265.44C410.41 268.7 402.31 270.34 392.98 270.34L340.98 270.34L340.98 130.94L390.98 130.94C400.45 130.94 408.51 132.5 415.18 135.64C421.85 138.77 426.85 143 430.18 148.34C433.51 153.67 435.18 159.67 435.18 166.34C435.18 174.6 432.95 181.44 428.48 186.84C424.01 192.24 418.11 196.14 410.78 198.54C415.85 199.34 420.48 201.4 424.68 204.74C428.88 208.07 432.21 212.2 434.68 217.14C437.15 222.07 438.38 227.34 438.38 232.94ZM359.18 191.14L389.78 191.14C398.31 191.14 404.91 189.14 409.58 185.14C414.25 181.14 416.58 175.6 416.58 168.54C416.58 161.47 414.25 155.94 409.58 151.94C404.91 147.94 398.18 145.94 389.38 145.94L359.18 145.94ZM420.18 231.14C420.18 223.4 417.51 217.3 412.18 212.84C406.85 208.37 399.71 206.14 390.78 206.14L359.18 206.14L359.18 255.34L391.38 255.34C400.45 255.34 407.51 253.2 412.58 248.94C417.65 244.67 420.18 238.74 420.18 231.14ZM505.78 158.94C515.38 158.94 523.71 161 530.78 165.14C537.85 169.27 543.11 174.47 546.58 180.74L546.58 160.74L564.98 160.74L564.98 270.34L546.58 270.34L546.58 249.94C542.98 256.34 537.61 261.64 530.48 265.84C523.35 270.04 515.05 272.14 505.58 272.14C495.85 272.14 487.05 269.74 479.18 264.94C471.31 260.14 465.11 253.4 460.58 244.74C456.05 236.07 453.78 226.2 453.78 215.14C453.78 203.94 456.05 194.1 460.58 185.64C465.11 177.17 471.35 170.6 479.28 165.94C487.21 161.27 496.05 158.94 505.78 158.94ZM509.38 174.74C502.58 174.74 496.38 176.34 490.78 179.54C485.18 182.74 480.71 187.4 477.38 193.54C474.05 199.67 472.38 206.87 472.38 215.14C472.38 223.54 474.05 230.84 477.38 237.04C480.71 243.24 485.18 247.97 490.78 251.24C496.38 254.5 502.58 256.14 509.38 256.14C516.18 256.14 522.41 254.5 528.08 251.24C533.75 247.97 538.25 243.24 541.58 237.04C544.91 230.84 546.58 223.6 546.58 215.34C546.58 207.07 544.91 199.87 541.58 193.74C538.25 187.6 533.75 182.9 528.08 179.64C522.41 176.37 516.18 174.74 509.38 174.74ZM586.78 238.14L605.58 238.14C606.11 243.6 608.68 248.07 613.28 251.54C617.88 255 623.91 256.74 631.38 256.74C638.31 256.74 643.78 255.2 647.78 252.14C651.78 249.07 653.78 245.2 653.78 240.54C653.78 235.74 651.65 232.17 647.38 229.84C643.11 227.5 636.51 225.2 627.58 222.94C619.45 220.8 612.81 218.64 607.68 216.44C602.55 214.24 598.15 210.97 594.48 206.64C590.81 202.3 588.98 196.6 588.98 189.54C588.98 183.94 590.65 178.8 593.98 174.14C597.31 169.47 602.05 165.77 608.18 163.04C614.31 160.3 621.31 158.94 629.18 158.94C641.31 158.94 651.11 162 658.58 168.14C666.05 174.27 670.05 182.67 670.58 193.34L652.38 193.34C651.98 187.6 649.68 183 645.48 179.54C641.28 176.07 635.65 174.34 628.58 174.34C622.05 174.34 616.85 175.74 612.98 178.54C609.11 181.34 607.18 185 607.18 189.54C607.18 193.14 608.35 196.1 610.68 198.44C613.01 200.77 615.95 202.64 619.48 204.04C623.01 205.44 627.91 207 634.18 208.74C642.05 210.87 648.45 212.97 653.38 215.04C658.31 217.1 662.55 220.2 666.08 224.34C669.61 228.47 671.45 233.87 671.58 240.54C671.58 246.54 669.91 251.94 666.58 256.74C663.25 261.54 658.55 265.3 652.48 268.04C646.41 270.77 639.45 272.14 631.58 272.14C623.18 272.14 615.65 270.7 608.98 267.84C602.31 264.97 597.05 260.97 593.18 255.84C589.31 250.7 587.18 244.8 586.78 238.14ZM793.58 222.34L705.98 222.34C706.65 233.14 710.35 241.57 717.08 247.64C723.81 253.7 731.98 256.74 741.58 256.74C749.45 256.74 756.01 254.9 761.28 251.24C766.55 247.57 770.25 242.67 772.38 236.54L791.98 236.54C789.05 247.07 783.18 255.64 774.38 262.24C765.58 268.84 754.65 272.14 741.58 272.14C731.18 272.14 721.88 269.8 713.68 265.14C705.48 260.47 699.05 253.84 694.38 245.24C689.71 236.64 687.38 226.67 687.38 215.34C687.38 204 689.65 194.07 694.18 185.54C698.71 177 705.08 170.44 713.28 165.84C721.48 161.24 730.91 158.94 741.58 158.94C751.98 158.94 761.18 161.2 769.18 165.74C777.18 170.27 783.35 176.5 787.68 184.44C792.01 192.37 794.18 201.34 794.18 211.34C794.18 214.8 793.98 218.47 793.58 222.34ZM740.78 174.34C731.58 174.34 723.75 177.27 717.28 183.14C710.81 189 707.11 197.14 706.18 207.54L775.38 207.54C775.38 200.6 773.85 194.64 770.78 189.64C767.71 184.64 763.55 180.84 758.28 178.24C753.01 175.64 747.18 174.34 740.78 174.34Z"/></svg>
